# xmcd
#
# Track frame offsets:
#	150
#	16422
#	32309
#	47252
#	61888
#	79205
#	95231
#	111468
#	129741
#	146745
#	155980
#	172533
#	189906
#	204345
#	216509
#	227729
#
# Disc length: 3280 seconds
#
# Revision: 0
# Processed by: cddbd v1.5.1PL2 Copyright (c) Steve Scherf et al.
# Submitted via: audiograbber 1.83.01
#
DISCID=db0cce10
DTITLE=Various Artist - Promo Country December 1997
DYEAR=1997
DGENRE=Country
TTITLE0=Shania Twain - Don't Be Stupid (You Know I Love You)
TTITLE1=Tim McGraw - Just To See You Smile
TTITLE2=Mark Chesnutt - It's Not Over
TTITLE3=Wynonna - Come Some Rainy Day
TTITLE4=Bryan White - One Small Miracle
TTITLE5=Lee Ann Womack - You've Got To Talk To Me
TTITLE6=David Kersh - If I Never Stop Lovin' You
TTITLE7=Mila Mason - Closer To Heaven
TTITLE8=JC Jones - One Night
TTITLE9=Sara Evens - Shame About That
TTITLE10=Rodney Adkins - God Only Knows
TTITLE11=Melodie Crittendon - Broken Road
TTITLE12=Rhett Akins - More Than Everything
TTITLE13=Chely Wright - Just Another Heartache
TTITLE14=David Morgan - I Wear The Pants
TTITLE15=Clint Black - Something That We Do (Acoustic Version)
EXTD=
EXTT0=
EXTT1=
EXTT2=
EXTT3=
EXTT4=
EXTT5=
EXTT6=
EXTT7=
EXTT8=
EXTT9=
EXTT10=
EXTT11=
EXTT12=
EXTT13=
EXTT14=
EXTT15=
PLAYORDER=
